<svg width="24" height="24" viewBox="0 0 24 24" fill="none" xmlns="http://www.w3.org/2000/svg">
<g clip-path="url(#clip0_59_118)">
<path d="M5.41936 10.387V19.5225H3.5613V12.1934H0.283879V10.387H5.41936ZM5.41936 18.7741C6.63227 20.7096 8.92904 21.587 11.9742 21.716C14.8387 21.845 20.8 21.7676 23.9226 21.5354C23.6903 21.9741 23.4065 22.8515 23.3032 23.3934C20.4387 23.5225 14.8645 23.5741 11.9742 23.445C8.59356 23.316 6.24517 22.4128 4.64517 20.3741C3.50968 21.4838 2.32259 22.5934 1.05807 23.7547L0.0516205 21.9225C1.21291 21.0709 2.58065 19.9096 3.79356 18.7741H5.41936ZM0.516137 1.92247L1.9871 0.864401C3.5871 2.02569 5.39356 3.80634 6.19356 5.07085L4.59356 6.28376C3.87097 4.99343 2.09033 3.18698 0.516137 1.92247ZM6.29678 6.82569H23.5613V8.19343H6.29678V6.82569ZM13.8065 0.219238H15.6645V7.83214H13.8065V0.219238ZM10.0387 2.8515V4.42569H19.5355V2.8515H10.0387ZM8.25807 1.63859H21.4452V5.61279H8.25807V1.63859ZM10.3226 12.8128V14.1031H19.4065V12.8128H10.3226ZM10.3226 15.187V16.5031H19.4065V15.187H10.3226ZM10.3226 10.4644V11.7289H19.4065V10.4644H10.3226ZM8.51614 9.35472H21.2645V17.6128H8.51614V9.35472ZM12.0774 17.587L13.7548 18.1547C12.4387 19.3418 10.4 20.5289 8.72259 21.2515C8.3871 20.9418 7.71614 20.3999 7.30323 20.1418C9.03226 19.4709 10.9161 18.5676 12.0774 17.587ZM16.0258 18.387L17.2645 17.4838C19.3032 18.2838 21.6258 19.3676 22.9936 20.1934L21.2645 21.0709C20.0516 20.2709 17.9613 19.2128 16.0258 18.387Z" fill="white"/>
</g>
<defs>
<clipPath id="clip0_59_118">
<rect width="24" height="24" fill="white"/>
</clipPath>
</defs>
</svg>
